<mxfile host="Electron" agent="Mozilla/5.0 (Windows NT 10.0; Win64; x64) AppleWebKit/537.36 (KHTML, like Gecko) draw.io/24.7.17 Chrome/128.0.6613.36 Electron/32.0.1 Safari/537.36" version="24.7.17">
  <diagram id="C5RBs43oDa-KdzZeNtuy" name="Page-1">
    <mxGraphModel dx="1120" dy="524" grid="1" gridSize="10" guides="1" tooltips="1" connect="1" arrows="1" fold="1" page="1" pageScale="1" pageWidth="827" pageHeight="1169" math="0" shadow="0">
      <root>
        <mxCell id="WIyWlLk6GJQsqaUBKTNV-0" />
        <mxCell id="WIyWlLk6GJQsqaUBKTNV-1" parent="WIyWlLk6GJQsqaUBKTNV-0" />
        <mxCell id="Yw62RfL7iwQM3plJJo1C-23" style="edgeStyle=orthogonalEdgeStyle;rounded=0;orthogonalLoop=1;jettySize=auto;html=1;" parent="WIyWlLk6GJQsqaUBKTNV-1" source="Yw62RfL7iwQM3plJJo1C-0" target="Yw62RfL7iwQM3plJJo1C-1" edge="1">
          <mxGeometry relative="1" as="geometry" />
        </mxCell>
        <mxCell id="Yw62RfL7iwQM3plJJo1C-0" value="" style="ellipse;whiteSpace=wrap;html=1;aspect=fixed;" parent="WIyWlLk6GJQsqaUBKTNV-1" vertex="1">
          <mxGeometry x="320" y="40" width="40" height="40" as="geometry" />
        </mxCell>
        <mxCell id="Yw62RfL7iwQM3plJJo1C-24" style="edgeStyle=orthogonalEdgeStyle;rounded=0;orthogonalLoop=1;jettySize=auto;html=1;" parent="WIyWlLk6GJQsqaUBKTNV-1" source="Yw62RfL7iwQM3plJJo1C-1" target="Yw62RfL7iwQM3plJJo1C-22" edge="1">
          <mxGeometry relative="1" as="geometry" />
        </mxCell>
        <mxCell id="Yw62RfL7iwQM3plJJo1C-1" value="Danh sách giới thiệu" style="rounded=1;whiteSpace=wrap;html=1;" parent="WIyWlLk6GJQsqaUBKTNV-1" vertex="1">
          <mxGeometry x="277.5" y="120" width="125" height="40" as="geometry" />
        </mxCell>
        <mxCell id="Yw62RfL7iwQM3plJJo1C-26" style="edgeStyle=orthogonalEdgeStyle;rounded=0;orthogonalLoop=1;jettySize=auto;html=1;" parent="WIyWlLk6GJQsqaUBKTNV-1" source="Yw62RfL7iwQM3plJJo1C-22" target="Yw62RfL7iwQM3plJJo1C-25" edge="1">
          <mxGeometry relative="1" as="geometry" />
        </mxCell>
        <mxCell id="Yw62RfL7iwQM3plJJo1C-22" value="Thêm/Cập nhật&amp;nbsp;&lt;div&gt;giới thiệu&lt;/div&gt;" style="rounded=1;whiteSpace=wrap;html=1;" parent="WIyWlLk6GJQsqaUBKTNV-1" vertex="1">
          <mxGeometry x="277.5" y="190" width="125" height="40" as="geometry" />
        </mxCell>
        <mxCell id="Yw62RfL7iwQM3plJJo1C-28" style="edgeStyle=orthogonalEdgeStyle;rounded=0;orthogonalLoop=1;jettySize=auto;html=1;entryX=0.5;entryY=0;entryDx=0;entryDy=0;" parent="WIyWlLk6GJQsqaUBKTNV-1" source="Yw62RfL7iwQM3plJJo1C-25" target="Yw62RfL7iwQM3plJJo1C-27" edge="1">
          <mxGeometry relative="1" as="geometry" />
        </mxCell>
        <mxCell id="Yw62RfL7iwQM3plJJo1C-25" value="Nhập dữ liệu" style="rounded=1;whiteSpace=wrap;html=1;" parent="WIyWlLk6GJQsqaUBKTNV-1" vertex="1">
          <mxGeometry x="277.5" y="270" width="125" height="40" as="geometry" />
        </mxCell>
        <mxCell id="Yw62RfL7iwQM3plJJo1C-30" style="edgeStyle=orthogonalEdgeStyle;rounded=0;orthogonalLoop=1;jettySize=auto;html=1;entryX=0.5;entryY=0;entryDx=0;entryDy=0;" parent="WIyWlLk6GJQsqaUBKTNV-1" source="Yw62RfL7iwQM3plJJo1C-27" target="Yw62RfL7iwQM3plJJo1C-29" edge="1">
          <mxGeometry relative="1" as="geometry" />
        </mxCell>
        <mxCell id="Yw62RfL7iwQM3plJJo1C-31" value="Sai" style="edgeLabel;html=1;align=center;verticalAlign=middle;resizable=0;points=[];" parent="Yw62RfL7iwQM3plJJo1C-30" vertex="1" connectable="0">
          <mxGeometry x="-0.5088" relative="1" as="geometry">
            <mxPoint as="offset" />
          </mxGeometry>
        </mxCell>
        <mxCell id="Yw62RfL7iwQM3plJJo1C-34" style="edgeStyle=orthogonalEdgeStyle;rounded=0;orthogonalLoop=1;jettySize=auto;html=1;" parent="WIyWlLk6GJQsqaUBKTNV-1" source="Yw62RfL7iwQM3plJJo1C-27" target="Yw62RfL7iwQM3plJJo1C-33" edge="1">
          <mxGeometry relative="1" as="geometry" />
        </mxCell>
        <mxCell id="Yw62RfL7iwQM3plJJo1C-35" value="Đúng" style="edgeLabel;html=1;align=center;verticalAlign=middle;resizable=0;points=[];" parent="Yw62RfL7iwQM3plJJo1C-34" vertex="1" connectable="0">
          <mxGeometry x="-0.36" y="1" relative="1" as="geometry">
            <mxPoint as="offset" />
          </mxGeometry>
        </mxCell>
        <mxCell id="Yw62RfL7iwQM3plJJo1C-27" value="Kiểm tra" style="rhombus;whiteSpace=wrap;html=1;" parent="WIyWlLk6GJQsqaUBKTNV-1" vertex="1">
          <mxGeometry x="310" y="360" width="60" height="60" as="geometry" />
        </mxCell>
        <mxCell id="Yw62RfL7iwQM3plJJo1C-29" value="Thông báo lỗi" style="rounded=1;whiteSpace=wrap;html=1;" parent="WIyWlLk6GJQsqaUBKTNV-1" vertex="1">
          <mxGeometry x="400" y="440" width="125" height="40" as="geometry" />
        </mxCell>
        <mxCell id="Yw62RfL7iwQM3plJJo1C-37" style="edgeStyle=orthogonalEdgeStyle;rounded=0;orthogonalLoop=1;jettySize=auto;html=1;" parent="WIyWlLk6GJQsqaUBKTNV-1" source="Yw62RfL7iwQM3plJJo1C-33" target="Yw62RfL7iwQM3plJJo1C-36" edge="1">
          <mxGeometry relative="1" as="geometry" />
        </mxCell>
        <mxCell id="Yw62RfL7iwQM3plJJo1C-33" value="Thông báo lỗi" style="rounded=1;whiteSpace=wrap;html=1;" parent="WIyWlLk6GJQsqaUBKTNV-1" vertex="1">
          <mxGeometry x="160" y="440" width="125" height="40" as="geometry" />
        </mxCell>
        <mxCell id="Yw62RfL7iwQM3plJJo1C-39" style="edgeStyle=orthogonalEdgeStyle;rounded=0;orthogonalLoop=1;jettySize=auto;html=1;entryX=0.5;entryY=0;entryDx=0;entryDy=0;" parent="WIyWlLk6GJQsqaUBKTNV-1" source="Yw62RfL7iwQM3plJJo1C-36" target="Yw62RfL7iwQM3plJJo1C-38" edge="1">
          <mxGeometry relative="1" as="geometry" />
        </mxCell>
        <mxCell id="Yw62RfL7iwQM3plJJo1C-36" value="Lưu giới thiệu" style="rounded=1;whiteSpace=wrap;html=1;" parent="WIyWlLk6GJQsqaUBKTNV-1" vertex="1">
          <mxGeometry x="160" y="530" width="125" height="40" as="geometry" />
        </mxCell>
        <mxCell id="Yw62RfL7iwQM3plJJo1C-41" style="edgeStyle=orthogonalEdgeStyle;rounded=0;orthogonalLoop=1;jettySize=auto;html=1;" parent="WIyWlLk6GJQsqaUBKTNV-1" source="Yw62RfL7iwQM3plJJo1C-38" target="Yw62RfL7iwQM3plJJo1C-40" edge="1">
          <mxGeometry relative="1" as="geometry" />
        </mxCell>
        <mxCell id="Yw62RfL7iwQM3plJJo1C-42" value="Sai" style="edgeLabel;html=1;align=center;verticalAlign=middle;resizable=0;points=[];" parent="Yw62RfL7iwQM3plJJo1C-41" vertex="1" connectable="0">
          <mxGeometry x="-0.2815" relative="1" as="geometry">
            <mxPoint x="1" as="offset" />
          </mxGeometry>
        </mxCell>
        <mxCell id="Yw62RfL7iwQM3plJJo1C-46" style="edgeStyle=orthogonalEdgeStyle;rounded=0;orthogonalLoop=1;jettySize=auto;html=1;exitX=0;exitY=0.5;exitDx=0;exitDy=0;" parent="WIyWlLk6GJQsqaUBKTNV-1" source="Yw62RfL7iwQM3plJJo1C-38" target="Yw62RfL7iwQM3plJJo1C-43" edge="1">
          <mxGeometry relative="1" as="geometry" />
        </mxCell>
        <mxCell id="Yw62RfL7iwQM3plJJo1C-47" value="Đúng" style="edgeLabel;html=1;align=center;verticalAlign=middle;resizable=0;points=[];" parent="Yw62RfL7iwQM3plJJo1C-46" vertex="1" connectable="0">
          <mxGeometry x="-0.3511" y="-3" relative="1" as="geometry">
            <mxPoint x="1" as="offset" />
          </mxGeometry>
        </mxCell>
        <mxCell id="Yw62RfL7iwQM3plJJo1C-38" value="Kiểm tra" style="rhombus;whiteSpace=wrap;html=1;" parent="WIyWlLk6GJQsqaUBKTNV-1" vertex="1">
          <mxGeometry x="192.5" y="610" width="60" height="60" as="geometry" />
        </mxCell>
        <mxCell id="Yw62RfL7iwQM3plJJo1C-51" style="edgeStyle=orthogonalEdgeStyle;rounded=0;orthogonalLoop=1;jettySize=auto;html=1;entryX=0;entryY=0;entryDx=0;entryDy=0;" parent="WIyWlLk6GJQsqaUBKTNV-1" source="Yw62RfL7iwQM3plJJo1C-40" target="Yw62RfL7iwQM3plJJo1C-50" edge="1">
          <mxGeometry relative="1" as="geometry" />
        </mxCell>
        <mxCell id="Yw62RfL7iwQM3plJJo1C-40" value="Thông báo lỗi" style="rounded=1;whiteSpace=wrap;html=1;" parent="WIyWlLk6GJQsqaUBKTNV-1" vertex="1">
          <mxGeometry x="285" y="680" width="125" height="40" as="geometry" />
        </mxCell>
        <mxCell id="Yw62RfL7iwQM3plJJo1C-49" style="edgeStyle=orthogonalEdgeStyle;rounded=0;orthogonalLoop=1;jettySize=auto;html=1;" parent="WIyWlLk6GJQsqaUBKTNV-1" source="Yw62RfL7iwQM3plJJo1C-43" target="Yw62RfL7iwQM3plJJo1C-48" edge="1">
          <mxGeometry relative="1" as="geometry" />
        </mxCell>
        <mxCell id="Yw62RfL7iwQM3plJJo1C-43" value="Thông báo lỗi" style="rounded=1;whiteSpace=wrap;html=1;" parent="WIyWlLk6GJQsqaUBKTNV-1" vertex="1">
          <mxGeometry x="67.5" y="690" width="125" height="40" as="geometry" />
        </mxCell>
        <mxCell id="7PJCtLBWOVE-kcjzney9-2" style="edgeStyle=orthogonalEdgeStyle;rounded=0;orthogonalLoop=1;jettySize=auto;html=1;entryX=0;entryY=0.5;entryDx=0;entryDy=0;" edge="1" parent="WIyWlLk6GJQsqaUBKTNV-1" source="Yw62RfL7iwQM3plJJo1C-48" target="7PJCtLBWOVE-kcjzney9-1">
          <mxGeometry relative="1" as="geometry" />
        </mxCell>
        <mxCell id="Yw62RfL7iwQM3plJJo1C-48" value="Lấy dữ liệu mới" style="rounded=1;whiteSpace=wrap;html=1;" parent="WIyWlLk6GJQsqaUBKTNV-1" vertex="1">
          <mxGeometry x="67.5" y="780" width="125" height="40" as="geometry" />
        </mxCell>
        <mxCell id="Yw62RfL7iwQM3plJJo1C-50" value="" style="ellipse;whiteSpace=wrap;html=1;aspect=fixed;" parent="WIyWlLk6GJQsqaUBKTNV-1" vertex="1">
          <mxGeometry x="442.5" y="760" width="40" height="40" as="geometry" />
        </mxCell>
        <mxCell id="7PJCtLBWOVE-kcjzney9-3" style="edgeStyle=orthogonalEdgeStyle;rounded=0;orthogonalLoop=1;jettySize=auto;html=1;entryX=0.338;entryY=0.95;entryDx=0;entryDy=0;entryPerimeter=0;" edge="1" parent="WIyWlLk6GJQsqaUBKTNV-1" source="7PJCtLBWOVE-kcjzney9-1" target="Yw62RfL7iwQM3plJJo1C-50">
          <mxGeometry relative="1" as="geometry" />
        </mxCell>
        <mxCell id="7PJCtLBWOVE-kcjzney9-1" value="Sử dụng trạng&amp;nbsp;&lt;div&gt;giới thiệu&lt;/div&gt;" style="rounded=1;whiteSpace=wrap;html=1;" vertex="1" parent="WIyWlLk6GJQsqaUBKTNV-1">
          <mxGeometry x="230" y="780" width="125" height="40" as="geometry" />
        </mxCell>
      </root>
    </mxGraphModel>
  </diagram>
</mxfile>
